<?xml version="1.0" standalone="no"?><!DOCTYPE svg PUBLIC "-//W3C//DTD SVG 1.1//EN" "http://www.w3.org/Graphics/SVG/1.1/DTD/svg11.dtd"><svg width="32" height="32" viewBox="0 0 32 32" version="1.1" xmlns="http://www.w3.org/2000/svg" xmlns:xlink="http://www.w3.org/1999/xlink"><defs><style type="text/css"><![CDATA[

]]></style></defs><g class="transform-group"><g transform="scale(0.03125, 0.03125)"><path d="M832 48H192c-9.6 0-16 6.4-16 16v896c0 6.4 3.2 11.2 8 14.4 4.8 3.2 11.2 3.2 16 0L512 787.2l312 187.2c1.6 1.6 4.8 1.6 8 1.6s4.8 0 8-1.6c4.8-3.2 8-8 8-14.4V64c0-9.6-6.4-16-16-16z m-16 883.2L520 753.6c-1.6-1.6-4.8-1.6-8-1.6s-6.4 0-8 1.6L208 931.2V80h608v851.2z" fill="#272636"></path></g></g></svg>