<?xml version="1.0" standalone="no"?><!DOCTYPE svg PUBLIC "-//W3C//DTD SVG 1.1//EN" "http://www.w3.org/Graphics/SVG/1.1/DTD/svg11.dtd"><svg width="20" height="20" viewBox="0 0 20 20" version="1.1" xmlns="http://www.w3.org/2000/svg" xmlns:xlink="http://www.w3.org/1999/xlink"><defs><style type="text/css"><![CDATA[

]]></style></defs><g class="transform-group"><g transform="scale(0.01953125, 0.01953125)"><path d="M298.5 950.8l477.3-475.9c4.7-4.7 4.7-12.3 0-17L565.7 248.1c-4.7-4.7-12.3-4.7-17 0L72.1 724.6l-8 9.9v161.3H64v64h0.2v0.2h64v-0.2h161.5l8.8-9z m259.4-620l44.6 44.5-403.7 403.8-44.6-44.5 403.7-403.8zM128.2 895.9v-98.2l98.3 98.2h-98.3zM611.3 203.2l209.4 209.2c4.7 4.7 12.3 4.7 17 0l118.8-118.7c4.7-4.7 4.7-12.3 0-17L747.1 67.5c-4.7-4.7-12.3-4.7-17 0L611.3 186.2c-4.7 4.7-4.7 12.3 0 17z m124.2-50.5c4.7-4.7 12.3-4.7 17 0l118.8 118.7c4.7 4.7 4.7 12.3 0 17l-38.9 38.9c-4.7 4.7-12.3 4.7-17 0L696.5 208.5c-4.7-4.7-4.7-12.3 0-17l39-38.8z" fill="#898989"></path></g></g></svg>