<?xml version="1.0" standalone="no"?><!DOCTYPE svg PUBLIC "-//W3C//DTD SVG 1.1//EN" "http://www.w3.org/Graphics/SVG/1.1/DTD/svg11.dtd"><svg width="200" height="200" viewBox="0 0 200 200" version="1.1" xmlns="http://www.w3.org/2000/svg" xmlns:xlink="http://www.w3.org/1999/xlink"><defs><style type="text/css"><![CDATA[

]]></style></defs><g class="transform-group"><g transform="scale(0.1953125, 0.1953125)"><path d="M886.62016 733.3888v78.37696a51.2 51.2 0 0 1-51.2 51.2H220.9792a51.2 51.2 0 0 1-51.2-51.2v-78.37696a51.2 51.2 0 0 1 35.9424-48.86528l216.24832-67.52256c-46.75584-55.62368-75.14112-143.872-75.14112-226.4064 0-124.90752 71.20896-205.59872 181.37088-205.59872s181.37088 80.6912 181.37088 205.59872c0 82.5344-28.38528 170.78272-75.14112 226.4064l216.24832 67.52256a51.2 51.2 0 0 1 35.9424 48.86528z" fill="#272636"></path></g></g></svg>